<svg width="348" height="272" viewBox="0 0 348 272" fill="none" xmlns="http://www.w3.org/2000/svg">
<path d="M262.341 33.0831C206.902 -9.64967 129.774 -11.3958 73.5048 30.2403C43.7596 52.2507 20.6994 85.9247 24.8951 137.197C26.3779 155.333 30.505 170.211 36.5262 182.39C60.9141 231.765 161.081 229.863 166.644 229.856C170.248 229.853 173.852 229.933 177.456 230.098C190.08 230.677 202.638 232.265 215.008 234.846C232.646 238.522 255.1 240.369 275.163 233.406C278.571 232.229 281.883 230.788 285.069 229.099C296.094 223.24 308.436 217.641 315.651 203.744C321.074 193.314 325.024 180.236 326.925 163.948C333.845 104.627 299.269 61.5477 262.341 33.0831Z" fill="#F2F2F2"/>
<path d="M177.698 245.689C265.251 245.689 336.227 239.026 336.227 230.808C336.227 222.589 265.251 215.927 177.698 215.927C90.1456 215.927 19.17 222.589 19.17 230.808C19.17 239.026 90.1456 245.689 177.698 245.689Z" fill="#3F3D56"/>
<path opacity="0.1" d="M169.954 237.793C251.385 237.793 317.398 234.665 317.398 230.808C317.398 226.95 251.385 223.823 169.954 223.823C88.5234 223.823 22.5106 226.95 22.5106 230.808C22.5106 234.665 88.5234 237.793 169.954 237.793Z" fill="black"/>
<path d="M251.522 31.5098V48.2047H229.787V230.276H275.147V55.1351V48.2047V31.5098H251.522Z" fill="#575A89"/>
<path d="M131.821 143.65V114.986H104.101V143.65H93.7061V230.591H141.901V143.65H131.821Z" fill="#575A89"/>
<path d="M136.546 190.271H99.061V230.906H136.546V190.271Z" fill="#3F3D56"/>
<path opacity="0.1" d="M105.046 190.271H99.061V230.906H105.046V190.271Z" fill="black"/>
<path d="M213.722 22.3748V32.1398H158.281V22.3748H141.901V230.906H229.787V22.3748H213.722Z" fill="#3F3D56"/>
<path opacity="0.1" d="M226.007 22.3748H213.722V32.1398H226.007V22.3748Z" fill="black"/>
<path opacity="0.1" d="M154.186 22.3748H141.901V230.906H154.186V22.3748Z" fill="black"/>
<path d="M79.216 81.9103V74.0352H71.026V81.9103H56.2205V230.906H93.7061V81.9103H79.216Z" fill="#3F3D56"/>
<path opacity="0.1" d="M75.4358 74.0354H71.0258V81.9105H75.4358V74.0354Z" fill="black"/>
<path opacity="0.1" d="M60.6307 81.9104H56.2206V230.906H60.6307V81.9104Z" fill="black"/>
<path opacity="0.1" d="M226.007 102.7H213.722V230.906H226.007V102.7Z" fill="black"/>
<path opacity="0.1" d="M93.7059 81.9104H82.3659V109.316H93.7059V81.9104Z" fill="black"/>
<path d="M173.086 48.835H155.446V56.395H173.086V48.835Z" fill="#F4DB9F"/>
<path d="M210.572 126.64H192.932V134.2H210.572V126.64Z" fill="#F4DB9F"/>
<path d="M173.086 181.136H155.446V188.696H173.086V181.136Z" fill="#F4DB9F"/>
<path d="M83.9409 115.93H66.3008V123.49H83.9409V115.93Z" fill="#F4DB9F"/>
<path d="M126.781 194.681H109.141V202.241H126.781V194.681Z" fill="#F4DB9F"/>
<path opacity="0.1" d="M133.081 150.266H102.841V162.866H133.081V150.266Z" fill="black"/>
<path opacity="0.1" d="M265.382 62.6951H235.142V75.2952H265.382V62.6951Z" fill="black"/>
<path opacity="0.1" d="M265.382 89.4702H235.142V102.07H265.382V89.4702Z" fill="black"/>
<path opacity="0.1" d="M265.382 116.246H235.142V128.846H265.382V116.246Z" fill="black"/>
<path opacity="0.1" d="M265.382 143.021H235.142V155.621H265.382V143.021Z" fill="black"/>
<path opacity="0.1" d="M265.382 169.796H235.142V182.396H265.382V169.796Z" fill="black"/>
<path opacity="0.1" d="M265.382 196.571H235.142V209.171H265.382V196.571Z" fill="black"/>
<path d="M285.542 119.71V85.3752H263.492V119.71H255.617V230.906H293.102V119.71H285.542Z" fill="#3F3D56"/>
<path opacity="0.1" d="M270.422 85.3752H263.492V119.71H270.422V85.3752Z" fill="black"/>
<path opacity="0.1" d="M262.547 119.711H255.617V230.906H262.547V119.711Z" fill="black"/>
<path opacity="0.1" d="M293.102 175.466H274.517V186.491H293.102V175.466Z" fill="black"/>
<path d="M292.787 159.086H275.147V166.646H292.787V159.086Z" fill="#FF6584"/>
<path d="M348 166.718C348 194.782 331.316 204.581 310.736 204.581C290.156 204.581 273.473 194.782 273.473 166.718C273.473 138.654 310.736 102.952 310.736 102.952C310.736 102.952 348 138.654 348 166.718Z" fill="white"/>
<path d="M74.5275 166.447C74.5275 194.511 57.8439 204.31 37.2637 204.31C16.6835 204.31 0 194.511 0 166.447C0 138.383 37.2637 102.681 37.2637 102.681C37.2637 102.681 74.5275 138.383 74.5275 166.447Z" fill="#F9F9F9"/>
<path d="M74.5275 166.447C74.5275 194.511 57.8439 204.31 37.2637 204.31C16.6835 204.31 0 194.511 0 166.447C0 138.383 37.2637 102.681 37.2637 102.681C37.2637 102.681 74.5275 138.383 74.5275 166.447Z" fill="url(#paint0_linear)" fill-opacity="0.6"/>
<path d="M347.772 166.447C347.772 194.511 331.088 204.31 310.508 204.31C289.928 204.31 273.245 194.511 273.245 166.447C273.245 138.383 310.508 102.681 310.508 102.681C310.508 102.681 347.772 138.383 347.772 166.447Z" fill="url(#paint1_linear)" fill-opacity="0.6"/>
<path d="M309.379 200.288L309.76 176.801L325.643 147.744L309.82 173.116L309.992 162.556L320.938 141.533L310.037 159.761L310.346 140.767L322.067 124.031L310.394 137.781L310.587 102.952L309.376 149.058L309.475 147.156L297.558 128.915L309.284 150.808L308.173 172.021L308.14 171.457L294.402 152.261L308.099 173.447L307.96 176.1L307.935 176.139L307.947 176.357L305.129 230.176H308.893L309.345 202.377L323.008 181.244L309.379 200.288Z" fill="#3F3D56"/>
<path d="M74.5275 166.447C74.5275 194.511 57.8439 204.31 37.2637 204.31C16.6835 204.31 0 194.511 0 166.447C0 138.383 37.2637 102.681 37.2637 102.681C37.2637 102.681 74.5275 138.383 74.5275 166.447Z" fill="#F9F9F9"/>
<path d="M74.5275 166.447C74.5275 194.511 57.8439 204.31 37.2637 204.31C16.6835 204.31 0 194.511 0 166.447C0 138.383 37.2637 102.681 37.2637 102.681C37.2637 102.681 74.5275 138.383 74.5275 166.447Z" fill="url(#paint2_linear)" fill-opacity="0.6"/>
<path d="M36.2749 200.591L36.6564 177.104L52.5394 148.048L36.7166 173.42L36.888 162.859L47.8341 141.837L36.9336 160.065V160.065L37.242 141.071L48.9636 124.334L37.2906 138.084L37.4835 103.256L36.2715 149.362L36.3712 147.46L24.4537 129.218L36.18 151.111L35.0698 172.324L35.0367 171.761L21.298 152.564L34.9951 173.75L34.8563 176.403L34.8314 176.443L34.8425 176.661L32.0255 230.48H35.7894L36.241 202.681L49.9045 181.548L36.2749 200.591Z" fill="#3F3D56"/>
<path d="M105.414 269.134C135.634 269.134 160.131 265.82 160.131 261.732C160.131 257.645 135.634 254.331 105.414 254.331C75.1942 254.331 50.6963 257.645 50.6963 261.732C50.6963 265.82 75.1942 269.134 105.414 269.134Z" fill="#3F3D56"/>
<path opacity="0.1" d="M105.414 267.525C129.064 267.525 148.236 264.931 148.236 261.732C148.236 258.533 129.064 255.94 105.414 255.94C81.7637 255.94 62.5914 258.533 62.5914 261.732C62.5914 264.931 81.7637 267.525 105.414 267.525Z" fill="black"/>
<path d="M97.6767 156.354C104.096 156.354 109.3 151.149 109.3 144.73C109.3 138.31 104.096 133.106 97.6767 133.106C91.257 133.106 86.0529 138.31 86.0529 144.73C86.0529 151.149 91.257 156.354 97.6767 156.354Z" fill="#2F2E41"/>
<path d="M100.851 155.135C104.444 155.135 107.357 152.222 107.357 148.629C107.357 145.036 104.444 142.123 100.851 142.123C97.2583 142.123 94.3456 145.036 94.3456 148.629C94.3456 152.222 97.2583 155.135 100.851 155.135Z" fill="#FFB9B9"/>
<path d="M97.2124 152.047C97.2124 152.047 98.8664 156.017 96.3303 157.119C93.7942 158.222 94.7866 164.728 94.7866 164.728L104.71 162.633C104.71 162.633 104.71 159.876 102.726 158.663C100.741 157.45 105.372 152.047 105.372 152.047H97.2124Z" fill="#FFB9B9"/>
<path d="M94.0149 181.377L94.3456 185.016L109.231 187.552L107.798 180.826L94.0149 181.377Z" fill="#FFB9B9"/>
<path d="M93.7942 210.598L94.3456 226.035C94.3456 226.035 91.6992 232.32 93.7942 243.898C95.8893 255.476 94.3456 258.673 94.3456 258.673L101.844 259.666L101.403 255.365L99.6383 251.616L100.41 230.225C100.41 230.225 103.828 222.286 103.939 220.742C104.049 219.198 103.718 207.951 103.718 207.951L93.7942 210.598Z" fill="#FFB9B9"/>
<path opacity="0.1" d="M93.7942 210.598L94.3456 226.035C94.3456 226.035 91.6992 232.32 93.7942 243.898C95.8893 255.476 94.3456 258.673 94.3456 258.673L101.844 259.666L101.403 255.365L99.6383 251.616L100.41 230.225C100.41 230.225 103.828 222.286 103.939 220.742C104.049 219.198 103.718 207.951 103.718 207.951L93.7942 210.598Z" fill="black"/>
<path d="M96.1098 253.381C96.1098 253.381 96.1098 251.947 95.4482 251.837C94.7866 251.727 93.9045 251.396 93.9045 251.837C93.9045 252.278 93.7942 255.365 93.5737 255.806C93.3532 256.247 92.9121 257.901 93.2429 258.563C93.2429 258.563 92.2505 261.099 93.0224 261.32C93.7942 261.54 98.2048 261.54 98.2048 261.54L98.4254 260.327C98.4254 260.327 108.239 263.415 110.334 260.658C110.334 260.658 111.326 258.673 109.562 258.232C109.562 258.232 105.593 258.343 104.159 256.689C102.726 255.035 99.9691 251.175 99.9691 251.175C99.9691 251.175 97.7638 251.506 97.9843 252.94V253.381H96.1098Z" fill="#2F2E41"/>
<path d="M99.8588 210.928C99.8588 210.928 100.961 218.647 104.821 224.271C104.821 224.271 106.806 228.902 106.475 230.335C106.144 231.769 106.144 239.597 109.452 246.544L112.539 256.688L114.083 260.327L116.729 261.43L121.03 261.761L118.604 256.688L117.391 254.042C117.391 254.042 115.186 249.521 115.186 245.552C115.186 241.582 113.752 232.21 113.752 232.21C113.752 232.21 113.752 211.039 111.437 209.716C109.121 208.392 99.8588 210.928 99.8588 210.928Z" fill="#FFB9B9"/>
<path d="M94.8969 183.914L93.7943 183.693V188.655C93.7943 188.655 93.3532 192.514 92.3608 193.286C91.3685 194.058 87.5092 209.275 88.8324 210.157C90.1556 211.039 107.908 215.67 112.209 210.929L109.231 196.484C109.231 196.484 109.452 186.56 109.231 186.56C109.011 186.56 94.8969 183.914 94.8969 183.914Z" fill="#2F2E41"/>
<path d="M105.372 161.64C105.372 161.64 99.8588 157.891 94.3456 162.743C94.3456 162.743 92.3608 170.903 92.03 172.887C91.6992 174.872 89.6042 183.032 91.1479 183.804C92.6916 184.575 92.6916 181.929 96.6611 182.48C100.631 183.032 109.121 182.811 109.121 182.15C109.121 181.488 107.136 176.195 107.908 175.313C108.68 174.431 110.003 170.241 108.68 168.146C107.357 166.051 105.372 161.64 105.372 161.64Z" fill="#F19E70"/>
<path d="M98.2048 183.914L109.231 189.096C109.231 189.096 113.642 194.72 114.634 191.522C115.627 188.324 111.326 186.009 111.326 186.009L103.939 181.819L98.2048 183.693L98.2048 183.914Z" fill="#FFB9B9"/>
<path opacity="0.1" d="M98.9767 162.743C98.9767 162.743 92.6916 182.149 98.4254 185.237C104.159 188.324 105.041 182.48 105.041 182.48C105.041 182.48 101.182 180.054 102.395 177.077C103.608 174.1 104.711 162.743 104.711 162.743L98.9767 162.743Z" fill="black"/>
<path d="M98.6459 162.081C98.6459 162.081 92.3608 181.488 98.0946 184.575C103.828 187.662 104.711 181.818 104.711 181.818C104.711 181.818 100.851 179.393 102.064 176.415C103.277 173.438 104.38 162.081 104.38 162.081L98.6459 162.081Z" fill="#F19E70"/>
<path d="M113.8 255.647C113.8 255.647 113.689 254.146 112.988 254.082C112.287 254.017 111.337 253.739 111.371 254.201C111.405 254.663 111.528 257.905 111.331 258.384C111.134 258.863 110.8 260.629 111.197 261.297C111.197 261.297 110.354 264.029 111.179 264.201C112.005 264.372 116.624 264.032 116.624 264.032L116.762 262.744C116.762 262.744 127.279 265.22 129.26 262.171C129.26 262.171 130.146 260.016 128.264 259.69C128.264 259.69 124.115 260.112 122.486 258.491C120.857 256.869 117.672 253.04 117.672 253.04C117.672 253.04 115.388 253.556 115.729 255.041L115.763 255.503L113.8 255.647Z" fill="#2F2E41"/>
<path d="M100.838 148.605C105.174 148.605 108.689 146.733 108.689 144.424C108.689 142.115 105.174 140.244 100.838 140.244C96.5015 140.244 92.9864 142.115 92.9864 144.424C92.9864 146.733 96.5015 148.605 100.838 148.605Z" fill="#2F2E41"/>
<path d="M94.3119 151.459C94.9313 151.459 95.4335 150.683 95.4335 149.726C95.4335 148.769 94.9313 147.993 94.3119 147.993C93.6924 147.993 93.1903 148.769 93.1903 149.726C93.1903 150.683 93.6924 151.459 94.3119 151.459Z" fill="#FFB9B9"/>
<path d="M90.5393 138.612C93.5801 138.612 96.0453 136.147 96.0453 133.106C96.0453 130.065 93.5801 127.6 90.5393 127.6C87.4984 127.6 85.0333 130.065 85.0333 133.106C85.0333 136.147 87.4984 138.612 90.5393 138.612Z" fill="#2F2E41"/>
<path d="M249.891 271.614C271.636 271.614 289.264 269.938 289.264 267.871C289.264 265.804 271.636 264.128 249.891 264.128C228.146 264.128 210.519 265.804 210.519 267.871C210.519 269.938 228.146 271.614 249.891 271.614Z" fill="#3F3D56"/>
<path d="M237.148 261.054C237.148 261.054 233.222 264.36 231.156 264.153C229.089 263.946 225.163 263.946 226.816 266.219C228.469 268.492 235.288 269.732 238.181 269.939C241.074 270.145 247.479 270.352 247.066 269.112C246.653 267.872 246.239 262.087 244.586 261.674C242.933 261.26 237.148 261.054 237.148 261.054Z" fill="#575A89"/>
<path d="M259.68 257.808C259.68 257.808 256.787 262.047 254.742 262.403C252.696 262.76 248.914 263.815 251.117 265.56C253.32 267.305 260.221 266.666 263.063 266.088C265.905 265.51 272.13 263.987 271.399 262.904C270.668 261.821 268.715 256.359 267.012 256.406C265.309 256.452 259.68 257.808 259.68 257.808Z" fill="#575A89"/>
<path d="M234.848 197.177C234.848 197.177 232.189 215.389 232.809 218.695C233.429 222.001 233.842 227.167 233.842 227.167C233.842 227.167 233.429 231.506 233.842 233.572C234.255 235.638 236.735 255.268 236.735 255.681C236.735 256.094 236.321 257.334 236.735 258.367C237.148 259.4 237.974 258.574 236.735 260.227C235.495 261.88 236.321 262.293 236.528 262.293C236.735 262.293 244.793 263.12 245.206 262.293C245.619 261.467 245 261.26 245.206 260.227C245.413 259.194 245.619 258.987 246.033 258.781C246.446 258.574 247.272 258.987 246.653 257.954C246.033 256.921 244.586 255.681 245 255.061C245.413 254.441 244.793 249.896 244.793 249.896C244.793 249.896 244.38 239.771 244.173 233.572C243.966 227.373 246.033 220.968 246.033 220.968C246.29 226.04 248.174 230.894 251.405 234.812C256.777 241.217 259.463 253.202 259.463 253.202C259.463 253.202 260.703 255.061 260.083 256.714C259.463 258.367 257.604 257.334 259.463 258.367C261.323 259.4 267.729 257.954 268.348 257.334C268.968 256.714 267.522 255.888 267.935 254.235C268.348 252.582 270.001 252.995 268.555 252.169C267.109 251.342 266.695 251.549 266.695 250.722C266.695 249.896 262.976 231.919 257.191 226.753L256.777 207.95C256.777 207.95 261.943 194.726 256.571 193.487C251.198 192.247 234.848 197.177 234.848 197.177Z" fill="#2F2E41"/>
<path d="M238.594 148.235C238.594 148.235 242.107 156.914 241.28 158.154C240.454 159.393 251.405 154.021 251.405 154.021C251.405 154.021 247.892 145.343 247.892 144.31C247.892 143.276 238.594 148.235 238.594 148.235Z" fill="#A0616A"/>
<path d="M241.177 150.405C245.399 150.405 248.822 146.982 248.822 142.76C248.822 138.538 245.399 135.115 241.177 135.115C236.955 135.115 233.532 138.538 233.532 142.76C233.532 146.982 236.955 150.405 241.177 150.405Z" fill="#A0616A"/>
<path d="M251.405 150.508C251.405 150.508 246.033 149.888 243.347 153.194C240.66 156.5 240.247 157.327 240.247 157.327C240.247 157.327 233.842 167.658 235.081 172.824C235.384 173.29 235.66 173.773 235.908 174.27C236.321 175.097 236.321 186.668 235.908 188.528C235.495 190.387 235.081 191.007 235.495 193.693C235.908 196.379 232.189 200.718 236.528 201.545C240.867 202.371 244.173 201.752 245.619 199.892C247.066 198.032 245.826 196.793 250.372 196.793C254.918 196.793 257.81 193.693 257.81 193.693C257.81 193.693 255.537 191.214 256.364 190.8C257.191 190.387 256.364 189.354 255.951 188.321C255.537 187.288 255.537 186.461 256.157 186.461C256.777 186.461 256.364 186.048 255.951 185.015C255.537 183.982 263.183 166.212 258.637 161.046C254.091 155.881 251.818 152.988 251.818 152.988C251.818 152.988 252.645 149.888 251.405 150.508Z" fill="#F19E70"/>
<path d="M239.627 170.138V179.23L233.015 201.132C233.015 201.132 228.676 212.496 233.015 212.496C237.354 212.496 237.122 201.649 237.122 201.649L246.446 185.222C246.446 185.222 250.165 172.204 249.752 171.171C249.339 170.138 239.627 170.138 239.627 170.138Z" fill="#A0616A"/>
<path d="M243.14 156.707C243.14 156.707 236.941 159.187 238.594 165.799C240.247 172.411 238.594 172.204 238.594 172.204C238.594 172.204 247.066 171.378 249.752 173.237L250.372 170.758C250.372 170.758 252.851 156.5 243.14 156.707Z" fill="#F19E70"/>
<path d="M238.566 137.021C238.089 137.19 237.578 137.238 237.077 137.16C236.577 137.082 236.104 136.881 235.701 136.575C234.922 135.933 234.592 134.749 235.05 133.85C235.446 133.073 236.292 132.647 237.103 132.33C238.893 131.629 240.779 131.204 242.696 131.067C243.61 131.002 244.57 131.012 245.386 131.43C245.789 131.636 246.14 131.934 246.54 132.148C247.275 132.542 248.13 132.629 248.924 132.883C249.737 133.148 250.483 133.584 251.112 134.163C251.742 134.741 252.239 135.448 252.572 136.236C252.788 136.77 252.939 137.329 253.021 137.9C253.259 139.463 253.093 141.06 252.539 142.541C251.658 144.886 249.811 146.936 249.707 149.439C248.576 148.619 248.157 147.138 247.251 146.075C246.577 145.289 245.656 144.755 244.639 144.56C244.357 144.543 244.087 144.444 243.861 144.276C243.703 144.088 243.604 143.857 243.576 143.613L242.803 139.96C242.645 139.217 242.446 138.406 241.835 137.955C241.455 137.711 241.023 137.559 240.574 137.51C239.507 137.324 238.427 137.225 237.344 137.216" fill="#2F2E41"/>
<defs>
<linearGradient id="paint0_linear" x1="74.5275" y1="204.31" x2="-4.89622" y2="106.664" gradientUnits="userSpaceOnUse">
<stop stop-color="#EC8F5B"/>
<stop offset="1" stop-color="#EDF063"/>
</linearGradient>
<linearGradient id="paint1_linear" x1="347.772" y1="204.31" x2="268.348" y2="106.664" gradientUnits="userSpaceOnUse">
<stop stop-color="#EC8F5B"/>
<stop offset="1" stop-color="#EDF063"/>
</linearGradient>
<linearGradient id="paint2_linear" x1="74.5275" y1="204.31" x2="-4.89622" y2="106.664" gradientUnits="userSpaceOnUse">
<stop stop-color="#EC8F5B"/>
<stop offset="1" stop-color="#EDF063"/>
</linearGradient>
</defs>
</svg>
