<svg width="48" height="44" viewBox="0 0 48 44" fill="none" xmlns="http://www.w3.org/2000/svg">
<path fill-rule="evenodd" clip-rule="evenodd" d="M12.408 4.8L16.8 0H31.2L35.592 4.8H43.2C45.84 4.8 48 6.96 48 9.6V38.4C48 41.04 45.84 43.2 43.2 43.2H4.8C2.16 43.2 0 41.04 0 38.4V9.6C0 6.96 2.16 4.8 4.8 4.8H12.408ZM12 24C12 30.624 17.376 36 24 36C30.624 36 36 30.624 36 24C36 17.376 30.624 12 24 12C17.376 12 12 17.376 12 24ZM31.6804 23.9995C31.6804 28.241 28.242 31.6795 24.0004 31.6795C19.7589 31.6795 16.3204 28.241 16.3204 23.9995C16.3204 19.7579 19.7589 16.3195 24.0004 16.3195C28.242 16.3195 31.6804 19.7579 31.6804 23.9995Z" fill="white"/>
</svg>
